<?xml version="1.0" encoding="UTF-8" standalone="no"?>
<!-- Created with Inkscape (http://www.inkscape.org/) -->

<svg
   xmlns:dc="http://purl.org/dc/elements/1.1/"
   xmlns:cc="http://creativecommons.org/ns#"
   xmlns:rdf="http://www.w3.org/1999/02/22-rdf-syntax-ns#"
   xmlns:svg="http://www.w3.org/2000/svg"
   xmlns="http://www.w3.org/2000/svg"
   xmlns:sodipodi="http://sodipodi.sourceforge.net/DTD/sodipodi-0.dtd"
   xmlns:inkscape="http://www.inkscape.org/namespaces/inkscape"
   width="6074.9199"
   height="6074.9199"
   id="svg2"
   version="1.1"
   inkscape:version="0.48.5 r10040"
   sodipodi:docname="lines.svg">
  <defs
     id="defs4">
    <inkscape:path-effect
       effect="spiro"
       id="path-effect3769"
       is_visible="true" />
    <inkscape:path-effect
       effect="spiro"
       id="path-effect2989"
       is_visible="true" />
    <inkscape:path-effect
       effect="spiro"
       id="path-effect3003"
       is_visible="true" />
    <inkscape:path-effect
       effect="spiro"
       id="path-effect2999"
       is_visible="true" />
    <inkscape:path-effect
       effect="spiro"
       id="path-effect2995"
       is_visible="true" />
  </defs>
  <sodipodi:namedview
     id="base"
     pagecolor="#ffffff"
     bordercolor="#666666"
     borderopacity="1.0"
     inkscape:pageopacity="0.0"
     inkscape:pageshadow="2"
     inkscape:zoom="0.12908506"
     inkscape:cx="4429.385"
     inkscape:cy="3399.4066"
     inkscape:document-units="px"
     inkscape:current-layer="layer2"
     showgrid="false"
     showborder="true"
     inkscape:showpageshadow="false"
     inkscape:window-width="1617"
     inkscape:window-height="1027"
     inkscape:window-x="55"
     inkscape:window-y="159"
     inkscape:window-maximized="1"
     fit-margin-top="0"
     fit-margin-left="0"
     fit-margin-right="0"
     fit-margin-bottom="600" />
  <metadata
     id="metadata7">
    <rdf:RDF>
      <cc:Work
         rdf:about="">
        <dc:format>image/svg+xml</dc:format>
        <dc:type
           rdf:resource="http://purl.org/dc/dcmitype/StillImage" />
        <dc:title />
      </cc:Work>
    </rdf:RDF>
  </metadata>
  <g
     inkscape:label="Shore"
     inkscape:groupmode="layer"
     id="layer1"
     transform="translate(2763.7378,3495.0075)"
     style="display:inline">
    <path
       id="path3001"
       style="fill:none;stroke:#000000;stroke-width:20;stroke-linecap:butt;stroke-linejoin:round;stroke-miterlimit:4;stroke-opacity:1;stroke-dasharray:none"
       inkscape:path-effect="#path-effect3003"
       inkscape:original-d="m 1434.2857,1652.3622 c -26.0658,-47.9127 -194.3018,-237.8996 -34.2857,-160 132.0731,64.2963 -292.7412,439.7774 -131.0238,340.7296 161.7174,-99.0478 378.538,138.8041 342.4523,-3.5867 -65.2096,-257.3119 -137.2365,-103.7894 -177.1428,-177.1429 z m -254.4276,-309.0761 c 111.1554,10.1711 101.0153,145.462 315.1677,-113.1371 214.1523,-258.59902 452.5483,-32.3248 303.0457,-177.7868 C 1648.569,906.90022 1559.6756,696.78849 1394.0105,902.85961 1228.3455,1108.9307 840.44691,611.93567 981.86827,886.69716 1123.2896,1161.4587 610.13213,1100.8495 909.13729,1185.7023 c 299.00511,84.8528 166.74021,148.0692 270.72081,157.5838 z M -3175.94,857.93964 c 73.2143,29.28572 492.1565,2.32175 646.9228,-38.04851 154.7662,-40.37026 335.8625,80.15686 405.9417,102.29841 140.1584,44.28312 528.948,42.85107 561.2694,112.51136 64.6428,139.3205 345.4058,563.0103 516.8343,363.0103 342.85716,-400.00003 474.69185,-499.88706 857.549,-551.31563 382.85714,-51.42857 167.605443,-733.50834 501.89115,-619.22263 334.28569,114.28571 631.24596,379.47492 862.67455,465.18924 115.7143,42.85715 162.8223,-184.89997 383.5224,-276.08163 220.7002,-91.18166 614.9925,-45.78788 649.2782,58.49783 68.5714,208.57146 -404.7891,752.81512 -310.5034,329.95795 23.5715,-105.71428 -237.1536,50.60194 -18.2359,66.74861 109.4588,8.07334 -117.7606,158.89116 96.6972,125.39658 107.2289,-16.74728 324.8771,-79.57264 521.9445,-140.46476 197.0675,-60.89212 325.0669,-188.54138 349.9729,-197.55571 199.2477,-72.1147 1020.7517,-131.77819 1020.7517,-131.77819"
       d="m 1434.2857,1652.3622 c -11.8083,-24.8076 -13.6406,-53.0021 -15.7615,-80.3947 -2.1208,-27.3926 -5.0049,-55.6871 -18.5242,-79.6053 -12.527,-22.1627 -33.8141,-38.9994 -57.9459,-47.1089 -24.1319,-8.1095 -50.8814,-7.6337 -75.0719,0.299 -24.1905,7.9327 -45.7868,23.1444 -62.2636,42.5512 -16.4769,19.4068 -27.898,42.9062 -34.0732,67.6039 -12.3504,49.3954 -3.649,102.3264 16.16,149.231 19.809,46.9047 50.1585,88.5598 82.1708,128.1534 25.3318,31.3311 52.1002,61.8875 83.8876,86.6443 31.7874,24.7568 69.0618,43.6065 109.0152,48.8092 39.9533,5.2026 82.692,-4.3361 113.3586,-30.4684 15.3333,-13.0662 27.4085,-30.0663 34.0092,-49.0996 6.6006,-19.0333 7.6169,-40.0739 2.1817,-59.4722 -5.7426,-20.4957 -18.3812,-38.5533 -33.5742,-53.4604 -15.193,-14.9072 -32.9383,-26.9289 -50.8179,-38.4774 -17.8797,-11.5485 -36.0649,-22.7567 -52.4759,-36.3114 -16.4111,-13.5547 -31.1267,-29.6749 -40.2748,-48.8937 m -254.4276,-309.0761 c 55.9325,-3.9548 109.2025,-24.8771 160.189,-48.2107 50.9866,-23.3336 101.0827,-49.4569 154.9787,-64.9264 60.7957,-17.4499 125.3524,-21.0087 184.517,-43.3732 29.5822,-11.1822 57.7638,-27.2505 79.6744,-50.0558 21.9106,-22.8052 37.1888,-52.7765 38.8543,-84.3578 1.0707,-20.3019 -3.4797,-40.7679 -12.2902,-59.08963 -8.8105,-18.32176 -21.8086,-34.5162 -37.2413,-47.75037 -30.8655,-26.46834 -70.7573,-40.70688 -111.002,-46.50412 -80.4895,-11.59447 -162.344,8.55598 -243.5275,3.84153 -70.1626,-4.07444 -137.8112,-26.56188 -207.0197,-38.79129 -34.6043,-6.1147 -69.8697,-9.67 -104.9084,-6.99913 -35.0388,2.67087 -69.9542,11.76222 -100.21413,29.62797 -48.55116,28.66509 -82.60358,79.3671 -94.63457,134.45034 -12.03099,55.0832 -2.81987,113.8828 21.90359,164.5548 24.29554,49.795 63.46859,92.2622 111.30101,120.2242 47.8323,27.962 104.1519,41.2674 159.4198,37.3596 M -3175.94,857.93964 c 207.7224,-67.35237 432.7373,-80.58654 646.9228,-38.04851 136.9147,27.19177 268.7503,76.53908 405.9417,102.29841 94.2115,17.68933 190.1386,24.10131 285.1191,37.04056 94.9804,12.93925 190.2948,32.83815 276.1503,75.4708 94.737,47.0429 173.8901,119.6122 253.6916,189.0374 79.8014,69.4253 163.7208,137.8699 263.1427,173.9729 88.4222,32.1087 185.9127,36.7497 278.10151,18.0233 92.1888,-18.7264 179.08709,-60.3185 254.60942,-116.4062 151.04466,-112.1754 253.95947,-278.6512 324.83807,-452.93273 53.28699,-131.02595 91.090034,-269.64188 165.155995,-390.14721 37.032981,-60.25267 83.255102,-115.60165 140.387325,-157.28779 57.13223,-41.68613 125.67105,-69.21496 196.34783,-71.78763 84.30986,-3.06892 166.8258,29.22045 237.305,75.59126 70.4792,46.37081 130.6867,106.43211 190.91548,165.50887 60.22879,59.07676 121.66618,118.11559 193.8078,161.85523 72.14167,43.73965 156.79207,71.50973 240.64627,62.23388 80.14,-8.86498 153.4694,-50.70968 215.0484,-102.75801 61.5791,-52.04834 113.3654,-114.46745 168.474,-173.32362 51.3016,-54.79029 106.1423,-107.04755 169.4249,-147.41024 63.2825,-40.36269 135.7369,-68.52799 210.7314,-71.63609 74.9945,-3.1081 152.5226,20.60373 206.8888,72.35455 27.1831,25.8754 48.2191,58.38013 59.5073,94.17168 11.2882,35.79155 12.6627,74.82794 2.7258,111.01793 -10.1613,37.0069 -31.7041,70.148 -57.7984,98.28782 -26.0943,28.13983 -56.7275,51.65424 -87.7978,74.17967 -31.0704,22.52543 -62.8112,44.26457 -91.7785,69.43711 -28.9673,25.17253 -55.2941,54.07266 -73.1287,88.05335 -10.8298,20.63416 -18.4895,43.4465 -18.2359,66.74861 0.3031,27.85124 12.0854,54.88871 29.946,76.26115 17.8606,21.37243 41.499,37.38342 66.7512,49.13543 42.7887,19.91328 90.5781,28.06478 137.7531,26.67578 47.175,-1.3889 93.7872,-12.1136 138.0646,-28.45141 88.5548,-32.67559 167.1071,-87.0604 246.1268,-138.68913 112.2588,-73.34598 227.7763,-142.33207 349.9729,-197.55571 317.2456,-143.37106 677.4962,-189.87912 1020.7517,-131.77819"
       inkscape:connector-curvature="0"
       sodipodi:nodetypes="sssssssssssscssssssssssssssc"
       inkscape:export-filename="C:\Users\Anton\Data\Game Making\Unity 3d\_Ludum Dare\Ludum Dare 33\Assets\Textures\shore.png"
       inkscape:export-xdpi="30.418413"
       inkscape:export-ydpi="30.418413" />
  </g>
  <g
     inkscape:groupmode="layer"
     id="layer2"
     inkscape:label="Roads">
    <path
       id="path3767"
       style="font-size:medium;font-style:normal;font-variant:normal;font-weight:normal;font-stretch:normal;text-indent:0;text-align:start;text-decoration:none;line-height:normal;letter-spacing:normal;word-spacing:normal;text-transform:none;direction:ltr;block-progression:tb;writing-mode:lr-tb;text-anchor:start;baseline-shift:baseline;color:#000000;fill:none;stroke:#000000;stroke-width:15;stroke-miterlimit:4;stroke-opacity:1;stroke-dasharray:none;marker:none;visibility:visible;display:inline;overflow:visible;enable-background:accumulate;font-family:Sans;-inkscape-font-specification:Sans"
       d="m 6703.765,1858.1503 c 0,0 -316.7346,-22.8894 -449.7034,-10.3318 -137.748,13.009 -312.3896,78.8299 -374.7491,111.9003 -142.536,75.5896 -300.7927,174.9396 -450.2187,256.875 -149.4261,81.9353 -290.9265,145.5586 -392.125,152.375 -393.0102,26.4717 -791.7161,-71.7585 -1195.2813,-56.5938 -128.9083,4.844 -465.7386,52.4422 -623.199,74.5437 -76.032,12.1015 -125.7399,-2.4886 -130.542,-33.2892 -7.5851,-42.2795 -15.5654,-132.6543 -23.1965,-211.7857 -10.4551,-108.4154 -18.631,-194.5253 -32.9062,-325.0938 -28.5506,-261.137 -81.6966,-804.5307 -100.2481,-1146.86343 -17.9102,-330.49868 -31.2936,-766.107976 -32.2083,-1010.14967 -0.9047,-241.38574 -7.1199,-402.15783 -7.1199,-402.15783 m -42.0542,0.68473 c 0,0 -1.2548,971.83298 49.6929,1633.7987 25.474,330.9828 63.6199,668.024 92.1563,929.0313 14.2682,130.5036 22.3725,215.9508 32.8125,324 7.7395,80.1006 15.4863,160.2057 22.1117,240.4062 4.5006,54.4814 8.2899,109.0204 11.9821,163.5625 9.1551,135.2431 42.021,276.1245 25.2187,405.875 -16.7438,129.2991 -77.2584,256.2086 -134.8437,360.9375 -28.7927,52.3645 -56.7801,99.1477 -78.1563,138.5312 -41.5452,92.616 -60.9803,184.8866 -168.0937,206.2188 -75.8024,14.0399 -170.3285,11.826 -242.4063,26.9062 -407.3544,85.2274 -854.8867,169.5505 -1083.2813,167.4688 -228.3945,-2.0816 -578.05108,-103.5419 -1409.93745,-78.9688 l -398.14436,11.7608 m 5.50818,34.1736 392.032277,-10.5113 c 288.558523,-7.7369 506.196383,0.5441 673.885003,7.639 167.68863,7.0948 288.42091,23.5228 377.62165,34.5871 89.2007,11.0643 138.1545,21.6066 199.0838,29.5187 53.4699,6.9435 99.9418,11.2574 159.5759,11.8009 238.5365,2.1741 683.9572,-82.9738 1091.8438,-168.3125 64.0357,-13.3977 159.4017,-11.5439 241.5,-26.75 147.9992,-34.9327 145.3198,-132.3688 195.9688,-226.4375 20.7219,-38.1781 48.849,-85.2139 78.0624,-138.3438 58.427,-106.2596 121.5876,-237.011 139.4688,-375.0937 17.8228,-137.6313 -18.7795,-314.8819 -23.4797,-415.8547 -6.7206,-41.3738 64.6104,-95.2226 112.9582,-106.4429 92.7945,-15.2609 380.8584,-66.0514 630.209,-75.4211 394.1102,-14.8094 793.3265,83.7044 1196.75,56.5312 118.0983,-7.9547 261.5112,-75.4738 412.8125,-158.4375 151.3013,-82.9637 309.5943,-182.2704 449.625,-256.5313 70.0153,-37.1305 204.3001,-92.9938 354.9088,-115.6152 71.2001,-10.6942 451.3033,7.8652 451.3033,7.8652"
       inkscape:connector-curvature="0"
       sodipodi:nodetypes="csssssccssssccsssssssccsssccsssscsccssccsssssc"
       inkscape:export-filename="C:\Users\Anton\Data\Game Making\Unity 3d\_Ludum Dare\Ludum Dare 33\Assets\Textures\main_road.png"
       inkscape:export-xdpi="29.401964"
       inkscape:export-ydpi="29.401964" />
    <path
       style="fill:none;stroke:#000000;stroke-width:17.5;stroke-linecap:butt;stroke-linejoin:miter;stroke-miterlimit:4;stroke-opacity:1;stroke-dasharray:none"
       d="m 3105.9281,3069.15 c 759.1894,0 864.3221,-92.962 864.3221,-166.5568 0,-73.5949 -61.9746,-298.253 -34.8607,-395.0884 27.1139,-96.8353 7.7469,-144.2561 7.7469,-144.2561"
       id="path3774"
       inkscape:connector-curvature="0"
       sodipodi:nodetypes="cssc"
       inkscape:export-filename="C:\Users\Anton\Data\Game Making\Unity 3d\_Ludum Dare\Ludum Dare 33\Assets\Textures\roads.png"
       inkscape:export-xdpi="29.401964"
       inkscape:export-ydpi="29.401964" />
    <path
       style="fill:none;stroke:#000000;stroke-width:17.5;stroke-linecap:butt;stroke-linejoin:miter;stroke-miterlimit:4;stroke-opacity:1;stroke-dasharray:none"
       d="m 2840.2579,3626.3273 c 482.0496,136.9459 764.1581,147.9016 758.6802,38.3449 -5.4778,-109.5568 -98.601,-230.0691 -49.3005,-410.8377 49.3005,-180.7686 90.3843,-199.9411 90.3843,-199.9411"
       id="path3776"
       inkscape:connector-curvature="0"
       sodipodi:nodetypes="cssc"
       inkscape:export-filename="C:\Users\Anton\Data\Game Making\Unity 3d\_Ludum Dare\Ludum Dare 33\Assets\Textures\roads.png"
       inkscape:export-xdpi="29.401964"
       inkscape:export-ydpi="29.401964" />
    <path
       style="fill:none;stroke:#000000;stroke-width:17.5;stroke-linecap:butt;stroke-linejoin:miter;stroke-miterlimit:4;stroke-opacity:1;stroke-dasharray:none"
       d="m 3590.7214,3700.2781 c 613.5176,147.9016 764.1581,117.7735 780.5916,2.7389 16.4335,-115.0345 -5.4779,-443.7047 -65.734,-509.4387 -60.2562,-65.734 -336.887,-265.6751 -336.887,-265.6751"
       id="path3778"
       inkscape:connector-curvature="0"
       sodipodi:nodetypes="cssc"
       inkscape:export-filename="C:\Users\Anton\Data\Game Making\Unity 3d\_Ludum Dare\Ludum Dare 33\Assets\Textures\roads.png"
       inkscape:export-xdpi="29.401964"
       inkscape:export-ydpi="29.401964" />
    <path
       style="fill:none;stroke:#000000;stroke-width:17.5;stroke-linecap:butt;stroke-linejoin:miter;stroke-miterlimit:4;stroke-opacity:1;stroke-dasharray:none"
       d="m 3974.1699,2922.4255 c 558.7393,71.2118 654.6014,52.0393 654.6014,-68.473 0,-120.5124 -71.0743,-426.469 11.0932,-437.4247"
       id="path3780"
       inkscape:connector-curvature="0"
       sodipodi:nodetypes="csc"
       inkscape:export-filename="C:\Users\Anton\Data\Game Making\Unity 3d\_Ludum Dare\Ludum Dare 33\Assets\Textures\roads.png"
       inkscape:export-xdpi="29.401964"
       inkscape:export-ydpi="29.401964" />
    <path
       style="fill:none;stroke:#000000;stroke-width:17.5;stroke-linecap:butt;stroke-linejoin:miter;stroke-miterlimit:4;stroke-opacity:1;stroke-dasharray:none"
       d="m 4603.4565,2929.3415 c 602.5619,60.2562 726.4778,34.1677 710.0442,-58.9555 -16.4335,-93.1232 -98.2586,-451.9214 -87.303,-501.222"
       id="path3782"
       inkscape:connector-curvature="0"
       sodipodi:nodetypes="csc"
       inkscape:export-filename="C:\Users\Anton\Data\Game Making\Unity 3d\_Ludum Dare\Ludum Dare 33\Assets\Textures\roads.png"
       inkscape:export-xdpi="29.401964"
       inkscape:export-ydpi="29.401964" />
    <path
       style="fill:none;stroke:#000000;stroke-width:17.5;stroke-linecap:butt;stroke-linejoin:miter;stroke-miterlimit:4;stroke-opacity:1;stroke-dasharray:none"
       d="m 5738.033,2099.3806 c 301.2809,136.9459 221.8524,606.6703 178.0297,694.3157 -43.8227,87.6453 -624.4733,139.6848 -624.4733,139.6848"
       id="path3786"
       inkscape:connector-curvature="0"
       sodipodi:nodetypes="csc"
       inkscape:export-filename="C:\Users\Anton\Data\Game Making\Unity 3d\_Ludum Dare\Ludum Dare 33\Assets\Textures\roads.png"
       inkscape:export-xdpi="29.401964"
       inkscape:export-ydpi="29.401964" />
    <path
       style="fill:none;stroke:#000000;stroke-width:17.5;stroke-linecap:butt;stroke-linejoin:miter;stroke-miterlimit:4;stroke-opacity:1;stroke-dasharray:none"
       d="m 5149.1657,3878.3078 c 350.5815,-290.3253 141.0542,-946.2961 141.0542,-946.2961"
       id="path3788"
       inkscape:connector-curvature="0"
       sodipodi:nodetypes="cc"
       inkscape:export-filename="C:\Users\Anton\Data\Game Making\Unity 3d\_Ludum Dare\Ludum Dare 33\Assets\Textures\roads.png"
       inkscape:export-xdpi="29.401964"
       inkscape:export-ydpi="29.401964" />
    <path
       style="fill:none;stroke:#000000;stroke-width:17.5;stroke-linecap:butt;stroke-linejoin:miter;stroke-miterlimit:4;stroke-opacity:1;stroke-dasharray:none"
       d="m 5927.0184,3620.8495 c -350.5815,-82.1676 -273.8918,43.8227 -416.3156,-10.9557 -142.4237,-54.7784 -164.3351,-150.6405 -164.3351,-150.6405"
       id="path3792"
       inkscape:connector-curvature="0"
       sodipodi:nodetypes="csc"
       inkscape:export-filename="C:\Users\Anton\Data\Game Making\Unity 3d\_Ludum Dare\Ludum Dare 33\Assets\Textures\roads.png"
       inkscape:export-xdpi="29.401964"
       inkscape:export-ydpi="29.401964" />
    <path
       style="fill:none;stroke:#000000;stroke-width:17.5;stroke-linecap:butt;stroke-linejoin:miter;stroke-miterlimit:4;stroke-opacity:1;stroke-dasharray:none"
       d="m 3937.1945,2310.2773 c 49.3005,-230.0691 99.9705,-557.3698 1.3695,-595.7147 -98.6011,-38.3448 -601.1925,-32.867 -924.3848,-54.7784"
       id="path3796"
       inkscape:connector-curvature="0"
       sodipodi:nodetypes="csc" />
    <path
       style="fill:none;stroke:#000000;stroke-width:17.5;stroke-linecap:butt;stroke-linejoin:miter;stroke-miterlimit:4;stroke-opacity:1;stroke-dasharray:none"
       d="M 3959.7645,1727.1494 C 4250.2706,739.4286 3860.6601,299.81271 3860.6601,299.81271"
       id="path3798"
       inkscape:connector-curvature="0"
       sodipodi:nodetypes="cc" />
    <path
       style="fill:none;stroke:#000000;stroke-width:17.5;stroke-linecap:butt;stroke-linejoin:miter;stroke-miterlimit:4;stroke-opacity:1;stroke-dasharray:none"
       d="m 2930.6846,669.23721 c 1708.176,15.49366 1543.1096,-259.67069 1911.084,-178.32898"
       id="path3802"
       inkscape:connector-curvature="0"
       sodipodi:nodetypes="cc" />
    <path
       style="fill:none;stroke:#000000;stroke-width:17.5;stroke-linecap:butt;stroke-linejoin:miter;stroke-miterlimit:4;stroke-opacity:1;stroke-dasharray:none"
       d="m 3977.7218,1764.749 c 708.8349,-182.0505 739.198,-9.6265 719.8309,91.0823 -19.3671,100.7088 -57.2017,505.1886 -57.2017,505.1886"
       id="path3806"
       inkscape:connector-curvature="0"
       sodipodi:nodetypes="csc" />
    <path
       style="fill:none;stroke:#000000;stroke-width:17.5;stroke-linecap:butt;stroke-linejoin:miter;stroke-miterlimit:4;stroke-opacity:1;stroke-dasharray:none"
       d="m 4683.3882,1757.9017 c 619.7464,-282.7593 1007.3631,-101.6083 1030.6036,293.48"
       id="path3808"
       inkscape:connector-curvature="0"
       sodipodi:nodetypes="cc" />
    <path
       style="fill:none;stroke:#000000;stroke-width:17.5;stroke-linecap:butt;stroke-linejoin:miter;stroke-miterlimit:4;stroke-opacity:1;stroke-dasharray:none"
       d="m 5541.9168,1712.1256 c 391.2149,-945.11318 454.1294,-1207.17624 86.155,-1249.7838 -367.9744,-42.60756 -794.0501,27.1139 -794.0501,27.1139"
       id="path3810"
       inkscape:connector-curvature="0"
       sodipodi:nodetypes="csc" />
    <path
       style="fill:none;stroke:#000000;stroke-width:17.5;stroke-linecap:butt;stroke-linejoin:miter;stroke-miterlimit:4;stroke-opacity:1;stroke-dasharray:none"
       d="M 4686.3217,1760.1373 C 4829.638,846.01143 4837.8952,485.58229 4837.8952,485.58229"
       id="path3812"
       inkscape:connector-curvature="0"
       sodipodi:nodetypes="cc" />
    <path
       style="fill:none;stroke:#000000;stroke-width:17.5;stroke-linecap:butt;stroke-linejoin:miter;stroke-miterlimit:4;stroke-opacity:1;stroke-dasharray:none"
       d="M 5193.8197,44.361977 C 5523.0599,176.05809 5365.5791,1052.9402 5365.5791,1052.9402"
       id="path3814"
       inkscape:connector-curvature="0"
       sodipodi:nodetypes="cc" />
    <path
       style="fill:none;stroke:#000000;stroke-width:17.5;stroke-linecap:butt;stroke-linejoin:miter;stroke-miterlimit:4;stroke-opacity:1;stroke-dasharray:none"
       d="m 4400.1993,1101.4552 c 883.1386,174.3037 965.8498,-53.3282 965.8498,-53.3282"
       id="path3816"
       inkscape:connector-curvature="0"
       sodipodi:nodetypes="cc" />
    <path
       style="fill:none;stroke:#000000;stroke-width:17.5;stroke-linecap:butt;stroke-linejoin:miter;stroke-miterlimit:4;stroke-opacity:1;stroke-dasharray:none"
       d="m 1815.9026,3809.8348 c 5.4778,-213.6356 -16.4336,-109.5567 16.4334,-273.8918 32.8671,-164.3351 -216.3744,-692.9462 -216.3744,-692.9462"
       id="path3818"
       inkscape:connector-curvature="0"
       sodipodi:nodetypes="csc" />
    <path
       style="fill:none;stroke:#000000;stroke-width:17.5;stroke-linecap:butt;stroke-linejoin:miter;stroke-miterlimit:4;stroke-opacity:1;stroke-dasharray:none"
       d="m 3049.3318,2459.5198 c -273.8918,49.3005 -995.1434,43.8512 -1208.779,268.4424 -213.6356,224.5913 -624.4732,109.5568 -624.4732,109.5568 0,0 -427.27124,-262.9362 -558.7393,-82.1676 -131.46806,180.7686 -252.9488,514.309 -280.33798,1018.2699"
       id="path3820"
       inkscape:connector-curvature="0"
       sodipodi:nodetypes="cscsc" />
    <path
       style="fill:none;stroke:#000000;stroke-width:17.5;stroke-linecap:butt;stroke-linejoin:miter;stroke-miterlimit:4;stroke-opacity:1;stroke-dasharray:none"
       d="m 961.19404,3803.887 c 5.47784,-635.4289 90.55046,-467.885 709.54586,-506.2298 618.9955,-38.3449 794.2862,-306.7588 1046.2667,-262.9362 251.9804,43.8227 339.6258,27.3892 339.6258,27.3892"
       id="path3822"
       inkscape:connector-curvature="0"
       sodipodi:nodetypes="cssc" />
    <path
       style="fill:none;stroke:#000000;stroke-width:17.5;stroke-linecap:butt;stroke-linejoin:miter;stroke-miterlimit:4;stroke-opacity:1;stroke-dasharray:none"
       d="m 2970.0979,1658.8159 c -284.8475,5.4778 -696.796,-103.1105 -839.2198,33.8354 -142.4237,136.9459 -43.8227,657.3403 21.9114,843.5867 65.734,186.2464 261.0967,558.0143 261.0967,558.0143"
       id="path3824"
       inkscape:connector-curvature="0"
       sodipodi:nodetypes="cssc" />
    <path
       style="fill:none;stroke:#000000;stroke-width:17.5;stroke-linecap:butt;stroke-linejoin:miter;stroke-miterlimit:4;stroke-opacity:1;stroke-dasharray:none"
       d="M 776.85582,2692.0004 C 1198.6492,1475.9209 1377.6806,1676.8538 2133.6219,1693.2873"
       id="path3826"
       inkscape:connector-curvature="0"
       sodipodi:nodetypes="cc" />
    <path
       style="fill:none;stroke:#000000;stroke-width:17.5;stroke-linecap:butt;stroke-linejoin:miter;stroke-miterlimit:4;stroke-opacity:1;stroke-dasharray:none"
       d="M 241.02478,1977.4987 C 827.15321,1840.5528 1199.646,1846.0307 1599.5281,2108.9668"
       id="path3828"
       inkscape:connector-curvature="0"
       sodipodi:nodetypes="cc" />
    <path
       style="fill:none;stroke:#000000;stroke-width:17.5;stroke-linecap:butt;stroke-linejoin:miter;stroke-miterlimit:4;stroke-opacity:1;stroke-dasharray:none"
       d="m 2879.4904,669.5396 c -668.296,-21.91134 -743.1344,-77.93333 -737.6566,332.9044 5.4778,410.8376 -9.655,687.0555 -9.655,687.0555"
       id="path3830"
       inkscape:connector-curvature="0"
       sodipodi:nodetypes="csc" />
    <path
       style="fill:none;stroke:#000000;stroke-width:17.5;stroke-linecap:butt;stroke-linejoin:miter;stroke-miterlimit:4;stroke-opacity:1;stroke-dasharray:none"
       d="M 1333.0509,1725.7748 C 1250.8834,745.24223 1370.5886,572.6 1660.9139,621.90052 c 290.3253,49.30052 557.6096,70.36098 557.6096,70.36098"
       id="path3832"
       inkscape:connector-curvature="0"
       sodipodi:nodetypes="csc" />
    <path
       style="fill:none;stroke:#000000;stroke-width:17.5;stroke-linecap:butt;stroke-linejoin:miter;stroke-miterlimit:4;stroke-opacity:1;stroke-dasharray:none"
       d="M 493.00523,772.37484 C 613.016,876.3926 912.87864,769.60499 942.18773,613.51766 971.09894,459.54923 734.27766,255.82805 586.12844,306.7588 436.44747,358.21613 373.39966,668.70828 493.00523,772.37484 z"
       id="path3834"
       inkscape:connector-curvature="0"
       sodipodi:nodetypes="aaaa" />
    <path
       style="fill:none;stroke:#000000;stroke-width:17.5;stroke-linecap:butt;stroke-linejoin:miter;stroke-miterlimit:4;stroke-opacity:1;stroke-dasharray:none"
       d="M 943.07059,567.45443 C 1403.2088,627.71063 1516.753,893.55181 1642.7432,154.04397"
       id="path3836"
       inkscape:connector-curvature="0"
       sodipodi:nodetypes="cc" />
    <path
       style="fill:none;stroke:#000000;stroke-width:17.5;stroke-linecap:butt;stroke-linejoin:miter;stroke-miterlimit:4;stroke-opacity:1;stroke-dasharray:none"
       d="m 2219.2083,689.52258 c -82.1676,-295.80313 4.793,-536.14318 4.793,-536.14318"
       id="path3838"
       inkscape:connector-curvature="0"
       sodipodi:nodetypes="cc" />
    <path
       style="fill:none;stroke:#000000;stroke-width:17.5;stroke-linecap:butt;stroke-linejoin:miter;stroke-miterlimit:4;stroke-opacity:1;stroke-dasharray:none"
       d="M 1216.108,1813.9993 C 579.30272,1597.5344 548.11587,1157.3993 608.37206,812.29561"
       id="path3840"
       inkscape:connector-curvature="0"
       sodipodi:nodetypes="cc" />
    <path
       style="fill:none;stroke:#000000;stroke-width:17.5;stroke-linecap:butt;stroke-linejoin:miter;stroke-opacity:1;stroke-miterlimit:4;stroke-dasharray:none"
       d="m 1818.6415,3856.3964 c 24.6503,397.1431 101.34,427.2712 117.7735,594.3452"
       id="path3842"
       inkscape:connector-curvature="0" />
  </g>
</svg>
